<svg width="75" height="324" viewBox="0 0 75 324" fill="none" xmlns="http://www.w3.org/2000/svg">
<g clip-path="url(#clip0_152_28)">
<path d="M74.6667 50L15.5556 100H8.39233e-05L58.0742 50L8.39233e-05 0L12.4445 0L15.5556 0L74.6667 50Z" fill="#0FCE7E"/>
<path d="M74.6667 274L15.5556 324H8.39233e-05L58.0742 274L8.39233e-05 224H12.4445H15.5556L74.6667 274Z" fill="#0FCE7E"/>
<path d="M74.6667 162L15.5556 212H8.39233e-05L58.0742 162L8.39233e-05 112H12.4445H15.5556L74.6667 162Z" fill="#0FCE7E"/>
<path d="M149.333 50L90.2221 100H74.6666L132.741 50L74.6666 0L87.111 0L90.2221 0L149.333 50Z" fill="#0FCE7E"/>
</g>
<defs>
<clipPath id="clip0_152_28">
<rect width="75" height="324" fill="white"/>
</clipPath>
</defs>
</svg>
