<svg width="972" height="100" viewBox="0 0 972 100" fill="none" xmlns="http://www.w3.org/2000/svg">
<g clip-path="url(#clip0_148_28)">
<rect width="972" height="100" fill="black"/>
<path d="M74.6667 50L15.5556 100H8.29697e-05L58.0742 50L8.29697e-05 0L12.4445 0L15.5556 0L74.6667 50Z" fill="#0FCE7E"/>
<path d="M224 50L164.889 100H149.333L207.407 50L149.333 0L161.778 0L164.889 0L224 50Z" fill="#0FCE7E"/>
<path d="M373.333 50L314.222 100H298.667L356.741 50L298.667 0L311.111 0L314.222 0L373.333 50Z" fill="#0FCE7E"/>
<path d="M597.333 50L538.222 100H522.667L580.741 50L522.667 0L535.111 0L538.222 0L597.333 50Z" fill="#0FCE7E"/>
<path d="M971.667 49L912.556 99H897L955.074 49L897 -1L909.445 -1L912.556 -1L971.667 49Z" fill="#0FCE7E"/>
<path d="M896.667 50L837.556 100H822L880.074 50L822 0L834.445 0L837.556 0L896.667 50Z" fill="#0FCE7E"/>
<path d="M746.667 50L687.556 100H672L730.074 50L672 0L684.445 0L687.556 0L746.667 50Z" fill="#0FCE7E"/>
<path d="M821.667 50L762.556 100H747L805.074 50L747 0L759.445 0L762.556 0L821.667 50Z" fill="#0FCE7E"/>
<path d="M671.667 50L612.556 100H597L655.074 50L597 0L609.445 0L612.556 0L671.667 50Z" fill="#0FCE7E"/>
<path d="M522.667 50L463.556 100H448L506.074 50L448 0L460.445 0L463.556 0L522.667 50Z" fill="#0FCE7E"/>
<path d="M447.667 50L388.556 100H373L431.074 50L373 0L385.444 0L388.556 0L447.667 50Z" fill="#0FCE7E"/>
<path d="M298.667 50L239.556 100H224L282.074 50L224 0L236.444 0L239.556 0L298.667 50Z" fill="#0FCE7E"/>
<path d="M149.333 50L90.2221 100H74.6666L132.741 50L74.6666 0L87.111 0L90.2221 0L149.333 50Z" fill="#0FCE7E"/>
</g>
<defs>
<clipPath id="clip0_148_28">
<rect width="972" height="100" fill="white"/>
</clipPath>
</defs>
</svg>
