<svg width="75" height="425" viewBox="0 0 75 425" fill="none" xmlns="http://www.w3.org/2000/svg">
<path d="M74.6667 62L15.5556 112H8.39233e-05L58.0742 62L8.39233e-05 12L0 0L15.5556 12L74.6667 62Z" fill="#0FCE7E"/>
<path d="M74.6667 362L15.5556 412L0 424.5L8.39233e-05 412L58.0742 362L8.39233e-05 312H12.4445H15.5556L74.6667 362Z" fill="#0FCE7E"/>
<path d="M73.6667 212L14.5556 262H-0.999916L57.0742 212L-0.999916 162H11.4445H14.5556L73.6667 212Z" fill="#0FCE7E"/>
<path d="M74.6667 212L15.5556 262H8.39233e-05L58.0742 212L8.39233e-05 162H12.4445H15.5556L74.6667 212Z" fill="#0FCE7E"/>
<path d="M34 137.5L15.5153 162.001H0.0493889L20.5 137.5L0 112L11.9249 112.001H15.4999L34 137.5Z" fill="#0FCE7E"/>
<path d="M34.0494 287.5L15.5647 312.001H0.0987778L20.5494 287.5L0.0493889 262L11.9743 262.001H15.6L34.0494 287.5Z" fill="#0FCE7E"/>
</svg>
