<svg width="373" height="100" viewBox="0 0 373 100" fill="none" xmlns="http://www.w3.org/2000/svg">
<g clip-path="url(#clip0_152_28)">
<rect width="373" height="100" fill="black"/>
<path d="M74.6667 50L15.5556 100H8.29697e-05L58.0742 50L8.29697e-05 0L12.4445 0L15.5556 0L74.6667 50Z" fill="#0FCE7E"/>
<path d="M224 50L164.889 100H149.333L207.407 50L149.333 0L161.778 0L164.889 0L224 50Z" fill="#0FCE7E"/>
<path d="M373.333 50L314.222 100H298.667L356.741 50L298.667 0L311.111 0L314.222 0L373.333 50Z" fill="#0FCE7E"/>
<path d="M298.667 50L239.556 100H224L282.074 50L224 0L236.445 0L239.556 0L298.667 50Z" fill="#0FCE7E"/>
<path d="M149.333 50L90.2221 100H74.6666L132.741 50L74.6666 0L87.111 0L90.2221 0L149.333 50Z" fill="#0FCE7E"/>
</g>
<defs>
<clipPath id="clip0_152_28">
<rect width="373" height="100" fill="white"/>
</clipPath>
</defs>
</svg>
