<svg width="61" height="61" viewBox="0 0 61 61" fill="none" xmlns="http://www.w3.org/2000/svg">
<circle cx="30" cy="30" r="28.3333" transform="matrix(-1 0 0 1 60.3291 0.731689)" fill="black" stroke="#0FCE7E" stroke-width="3.33333"/>
<path d="M20.5263 32.5121C19.713 31.6982 19.7135 30.3791 20.5274 29.5658L33.7905 16.3124C34.6044 15.4991 35.9235 15.4996 36.7368 16.3135C37.5501 17.1274 37.5496 18.4465 36.7357 19.2598L24.9463 31.0406L36.7271 42.83C37.5404 43.6439 37.5399 44.963 36.726 45.7763C35.9121 46.5896 34.593 46.5891 33.7797 45.7752L20.5263 32.5121ZM23.1836 33.1233L21.9992 33.1228L22.0008 28.9562L23.1851 28.9566L23.1836 33.1233Z" fill="#0FCE7E"/>
</svg>
