<svg width="61" height="61" viewBox="0 0 61 61" fill="none" xmlns="http://www.w3.org/2000/svg">
<circle cx="30" cy="30" r="28.3333" transform="matrix(1 0 0 -1 0.329102 60.7317)" fill="black" stroke="#0FCE7E" stroke-width="3.33333"/>
<path d="M40.1319 28.9513C40.9452 29.7652 40.9447 31.0843 40.1308 31.8976L26.8677 45.151C26.0538 45.9642 24.7347 45.9638 23.9214 45.1499C23.1081 44.336 23.1086 43.0169 23.9225 42.2036L35.7119 30.4228L23.9311 18.6334C23.1178 17.8195 23.1183 16.5004 23.9322 15.6871C24.7461 14.8738 26.0652 14.8743 26.8785 15.6882L40.1319 28.9513ZM37.4746 28.3401L38.659 28.3405L38.6574 32.5072L37.4731 32.5068L37.4746 28.3401Z" fill="#0FCE7E"/>
</svg>
