<svg width="601" height="335" viewBox="0 0 601 335" fill="none" xmlns="http://www.w3.org/2000/svg">
<rect y="45" width="601" height="245" fill="#0FCE7E"/>
<path d="M601 45L544.5 0L14 0.5L7 6L0 12V45H601Z" fill="#0FCE7E"/>
<path d="M0 290L56.5 335L587 334.5L594 329L601 323V290H0Z" fill="#0FCE7E"/>
<path d="M588 146L601 139V217L588 210V146Z" fill="black"/>
<path d="M0 104.333L16 101V107.667L0 111V104.333Z" fill="black"/>
<path d="M0 91.3333L16 88V94.6667L0 98V91.3333Z" fill="black"/>
<path d="M0 78.3333L16 75V81.6667L0 85V78.3333Z" fill="black"/>
<path d="M0 117.333L16 114V117.333V120.667L0 124V117.333Z" fill="black"/>
<path d="M0 130.333L16 127V133.667L0 137V130.333Z" fill="black"/>
</svg>
